<svg width="168" height="66" viewBox="0 0 168 66" fill="none" xmlns="http://www.w3.org/2000/svg">
<path d="M7.73047 35.6367V51H0.664062V0.164062H7.73047V27.9023L31.7773 0.164062H39.4414L20.0703 22.5234L40.4609 51H32.6211L15.4648 26.8477L7.73047 35.6367ZM48.0547 37.8516V24.8789C48.0547 21.3633 49.2617 18.5156 51.6758 16.3359C54.0898 14.1328 57.9688 13.0312 63.3125 13.0312C68.4219 13.0312 72.1836 14.0391 74.5977 16.0547C77.0117 18.0469 78.2188 20.8125 78.2188 24.3516V33.2109H54.6641V38.4492C54.6641 41.4727 55.2617 43.6055 56.457 44.8477C57.6758 46.0898 60.043 46.7109 63.5586 46.7109C65.6445 46.7109 67.2852 46.6406 68.4805 46.5C69.6992 46.3359 70.5898 45.8672 71.1523 45.0938C71.7383 44.2969 72.125 42.9609 72.3125 41.0859H78.1484C77.8438 44.0156 77.1992 46.2539 76.2148 47.8008C75.2539 49.3242 73.7656 50.3672 71.75 50.9297C69.7344 51.4922 67.0039 51.7734 63.5586 51.7734C58.0039 51.7734 54.0312 50.6133 51.6406 48.293C49.25 45.9727 48.0547 42.4922 48.0547 37.8516ZM71.8203 28.7461V23.6484C71.8203 21.3984 71.0352 19.9102 69.4648 19.1836C67.918 18.457 65.8672 18.0938 63.3125 18.0938C60.6875 18.0938 58.5898 18.5508 57.0195 19.4648C55.4492 20.3789 54.6641 21.9844 54.6641 24.2812V28.7461H71.8203ZM89.6797 65.2734V60.1055C92.2812 60.1055 94.4023 59.5781 96.043 58.5234C97.6836 57.4688 99.0664 55.5938 100.191 52.8984L100.859 51.3164L85.3906 13.7344H92.2109L103.777 43.4766L113.375 13.7344H119.984L105.781 54.4453C104.516 58.0781 102.676 60.7852 100.262 62.5664C97.8477 64.3711 94.3203 65.2734 89.6797 65.2734ZM129.688 51V0.164062H148.109C152.82 0.164062 156.383 0.714844 158.797 1.81641C161.211 2.89453 162.84 4.47656 163.684 6.5625C164.551 8.64844 164.984 11.168 164.984 14.1211C164.984 16.3711 164.504 18.3516 163.543 20.0625C162.582 21.7734 160.918 23.0273 158.551 23.8242C161.527 24.5039 163.754 25.9922 165.23 28.2891C166.707 30.5625 167.445 33.3164 167.445 36.5508C167.445 41.5898 166.027 45.2578 163.191 47.5547C160.355 49.8516 155.844 51 149.656 51H129.688ZM136.789 21.7148H149.832C153.043 21.7148 155.188 21.0352 156.266 19.6758C157.367 18.293 157.918 16.4648 157.918 14.1914C157.918 11.7305 157.602 9.87891 156.969 8.63672C156.359 7.39453 155.258 6.5625 153.664 6.14062C152.094 5.69531 149.879 5.47266 147.02 5.47266H136.789V21.7148ZM136.789 45.7617H149.129C151.754 45.7617 153.898 45.5039 155.562 44.9883C157.25 44.4727 158.492 43.5 159.289 42.0703C160.086 40.6406 160.484 38.543 160.484 35.7773C160.484 34.2305 160.215 32.7539 159.676 31.3477C159.16 29.918 158.211 28.7578 156.828 27.8672C155.445 26.9766 153.453 26.5312 150.852 26.5312H136.789V45.7617Z" fill="black"/>
</svg>
